# xmcd
#
# Track frame offsets: 
#        150
#        24000
#        49815
#        69180
#        95250
#        120675
#        141570
#        174897
#        195042
#        210762
#        234432
#
# Disc length: 3334 seconds
#
# Revision: 0
# Processed by: cddbd v1.5.2PL0 Copyright (c) Steve Scherf et al.
# Submitted via: ExactAudioCopy v0.95a5
#
DISCID=7d0d040b
DTITLE=Pat Mac Manus Band - Walking Through Shadows
DYEAR=2011
DGENRE=Blues
TTITLE0=Danger Zone
TTITLE1=Walking In The Shadow Of Giants
TTITLE2=Hey You
TTITLE3=Give Me Love
TTITLE4=Ready To Rock
TTITLE5=Short Shap Shock
TTITLE6=Walking Shoes
TTITLE7=The Riddle
TTITLE8=E Tap 
TTITLE9=Slave To The Rhythm
TTITLE10=Oldest Rocker
EXTD=
EXTT0=
EXTT1=
EXTT2=
EXTT3=
EXTT4=
EXTT5=
EXTT6=
EXTT7=
EXTT8=
EXTT9=
EXTT10=
PLAYORDER=
